<svg width="31" height="31" viewBox="0 0 31 31" fill="none" xmlns="http://www.w3.org/2000/svg">
<g clip-path="url(#clip0)">
<path d="M0.647713 5.7614C4.90234 9.3646 12.3679 15.7037 14.5621 17.6803C14.8567 17.9471 15.1726 18.0827 15.5006 18.0827C15.8279 18.0827 16.1433 17.9483 16.4372 17.6828C18.6333 15.7043 26.0988 9.3646 30.3535 5.7614C30.6184 5.5375 30.6588 5.14394 30.4443 4.87021C29.9486 4.23768 29.2094 3.875 28.4172 3.875H2.58394C1.79181 3.875 1.05259 4.23768 0.556893 4.87027C0.342436 5.14394 0.38282 5.5375 0.647713 5.7614Z" fill="#4B8F37"/>
<path d="M30.6254 7.71359C30.3965 7.60703 30.1272 7.64421 29.9367 7.80696C27.1502 10.1689 23.479 13.2896 20.7102 15.6711C20.5645 15.796 20.4826 15.9795 20.4857 16.1719C20.4889 16.3636 20.5778 16.5446 20.7279 16.6644C23.3005 18.7249 27.1774 21.5593 29.9771 23.5737C30.0887 23.6544 30.2211 23.6954 30.3542 23.6954C30.4551 23.6954 30.556 23.6721 30.6488 23.6242C30.8645 23.5138 31.0001 23.2918 31.0001 23.0496V8.2995C31 8.04787 30.8537 7.81894 30.6254 7.71359Z" fill="#4B8F37"/>
<path d="M1.023 23.5743C3.82329 21.5598 7.70084 18.7255 10.2728 16.665C10.4229 16.5451 10.5118 16.3641 10.515 16.1724C10.5181 15.9801 10.4362 15.7965 10.2905 15.6716C7.52168 13.2901 3.84975 10.1694 1.06338 7.8075C0.871633 7.64475 0.601715 7.60884 0.374664 7.71413C0.146342 7.81948 0 8.04841 0 8.30005V23.0502C0 23.2924 0.135625 23.5144 0.351293 23.6248C0.44399 23.6727 0.544922 23.696 0.645854 23.696C0.778936 23.696 0.911352 23.655 1.023 23.5743Z" fill="#4B8F37"/>
<path d="M30.2081 25.3312C27.5043 23.3969 22.5237 19.7906 19.5506 17.3775C19.3084 17.1801 18.9577 17.1864 18.7193 17.392C18.136 17.9009 17.6478 18.3299 17.3015 18.6414C16.2381 19.6013 14.7623 19.6013 13.6964 18.6401C13.3514 18.3292 12.8633 17.899 12.2799 17.3919C12.0434 17.185 11.6921 17.1787 11.4492 17.3774C8.48619 19.7823 3.49991 23.393 0.791707 25.3312C0.640945 25.4397 0.543828 25.6068 0.524937 25.7916C0.506652 25.9763 0.567804 26.1599 0.694589 26.2961C1.18344 26.8228 1.87217 27.1249 2.58299 27.1249H28.4163C29.1272 27.1249 29.8152 26.8228 30.3053 26.2962C30.4314 26.1605 30.4932 25.977 30.4749 25.7922C30.456 25.6075 30.3589 25.4397 30.2081 25.3312Z" fill="#4B8F37"/>
</g>
<defs>
<clipPath id="clip0">
<rect width="31" height="31" fill="white"/>
</clipPath>
</defs>
</svg>
