<svg width="21" height="21" viewBox="0 0 21 21" fill="none" xmlns="http://www.w3.org/2000/svg">
<g clip-path="url(#clip0)">
<rect width="21" height="21" fill="white"/>
<path d="M20.8786 4.3875C20.7584 4.21522 20.565 4.10873 20.3549 4.09975L7.32837 3.53825C6.95462 3.5219 6.64228 3.81045 6.62631 4.18246C6.61042 4.55434 6.8985 4.86855 7.27047 4.88453L19.415 5.40805L17.0272 12.8584H6.40082L4.48102 2.40519C4.43881 2.17609 4.28152 1.98496 4.06459 1.89985L0.920275 0.664582C0.573732 0.528906 0.182684 0.699123 0.0465854 1.04524C-0.089278 1.39155 0.080892 1.78284 0.427248 1.91893L3.22305 3.01726L5.17674 13.6539C5.23562 13.9737 5.5143 14.206 5.83956 14.206H6.16364L5.4236 16.2615C5.36166 16.4337 5.38718 16.6249 5.49259 16.7745C5.59786 16.9242 5.76906 17.0132 5.95183 17.0132H6.47089C6.14926 17.3711 5.95183 17.8425 5.95183 18.3608C5.95183 19.4754 6.85879 20.3821 7.97319 20.3821C9.08759 20.3821 9.99455 19.4754 9.99455 18.3608C9.99455 17.8425 9.79713 17.3711 9.47554 17.0132H13.8826C13.5608 17.3711 13.3635 17.8425 13.3635 18.3608C13.3635 19.4754 14.2702 20.3821 15.3848 20.3821C16.4995 20.3821 17.4062 19.4754 17.4062 18.3608C17.4062 17.8425 17.2088 17.3711 16.8873 17.0132H17.5185C17.8287 17.0132 18.08 16.7618 18.08 16.4517C18.08 16.1416 17.8286 15.8902 17.5185 15.8902H6.75075L7.35708 14.2058H17.5185C17.8115 14.2058 18.0707 14.0165 18.16 13.7377L20.9674 4.97838C21.0319 4.77846 20.9988 4.55988 20.8786 4.3875ZM7.97324 19.2594C7.47777 19.2594 7.07483 18.8565 7.07483 18.361C7.07483 17.8655 7.47777 17.4626 7.97324 17.4626C8.46871 17.4626 8.8716 17.8655 8.8716 18.361C8.8716 18.8565 8.46871 19.2594 7.97324 19.2594ZM15.3848 19.2594C14.8894 19.2594 14.4865 18.8565 14.4865 18.361C14.4865 17.8655 14.8894 17.4626 15.3848 17.4626C15.8803 17.4626 16.2832 17.8655 16.2832 18.361C16.2832 18.8565 15.8803 19.2594 15.3848 19.2594Z" fill="#4B8F37"/>
</g>
<defs>
<clipPath id="clip0">
<rect width="21" height="21" fill="white"/>
</clipPath>
</defs>
</svg>
