<svg width="23" height="21" viewBox="0 0 23 21" fill="none" xmlns="http://www.w3.org/2000/svg">
<g clip-path="url(#clip0)">
<rect width="23" height="21" fill="white"/>
<path d="M20.9789 2.50195H2.02187C1.7107 2.50195 1.41938 2.5718 1.15582 2.68693L11.4555 12.091L13.764 10.0653C13.764 10.0653 13.7641 10.0651 13.7642 10.065C13.7642 10.0649 13.7644 10.0649 13.7644 10.0649L21.8453 2.6871C21.5817 2.57188 21.2902 2.50195 20.9789 2.50195Z" fill="#4B8F37"/>
<path d="M22.798 3.55713L15.1935 10.5L22.7977 17.443C22.9238 17.2024 23.0003 16.9364 23.0003 16.6523V4.34758C23.0003 4.06363 22.924 3.79769 22.798 3.55713Z" fill="#4B8F37"/>
<path d="M0.202598 3.55688C0.076502 3.79752 0 4.06351 0 4.34762V16.6523C0 16.9363 0.0764121 17.2023 0.202418 17.4428L7.80693 10.5L0.202598 3.55688Z" fill="#4B8F37"/>
<path d="M14.2395 11.37L11.9307 13.3958C11.7991 13.516 11.6267 13.5761 11.4543 13.5761C11.2819 13.5761 11.1095 13.516 10.9779 13.3958L8.75894 11.3699L1.1543 18.3128C1.4179 18.428 1.7094 18.4979 2.02066 18.4979H20.9777C21.2889 18.4979 21.5802 18.4281 21.8437 18.313L14.2395 11.37Z" fill="#4B8F37"/>
</g>
<defs>
<clipPath id="clip0">
<rect width="23" height="21" fill="white"/>
</clipPath>
</defs>
</svg>
