<svg width="26" height="26" viewBox="0 0 26 26" fill="none" xmlns="http://www.w3.org/2000/svg">
<path d="M15.0961 25.8306C14.9878 25.8482 14.8791 25.8645 14.77 25.8794C14.8791 25.8645 14.9878 25.8482 15.0961 25.8306Z" fill="#623F27"/>
<path d="M15.3562 25.7861C15.3044 25.7957 15.2526 25.8044 15.2009 25.8133C15.2526 25.8044 15.3044 25.7957 15.3562 25.7861Z" fill="#623F27"/>
<path d="M14.4796 25.9158C14.3528 25.9301 14.2253 25.9427 14.0974 25.9535C14.2253 25.9427 14.3528 25.9301 14.4796 25.9158Z" fill="#623F27"/>
<path d="M14.7293 25.8853C14.6684 25.8934 14.6071 25.9009 14.5461 25.9081C14.6071 25.9009 14.6684 25.8934 14.7293 25.8853Z" fill="#623F27"/>
<path d="M15.7101 25.7161C15.6644 25.7258 15.6186 25.7355 15.5728 25.7448C15.6186 25.7355 15.6644 25.7258 15.7101 25.7161Z" fill="#623F27"/>
<path d="M16.5884 25.498C16.5515 25.5086 16.5146 25.5185 16.4777 25.5288C16.5146 25.5185 16.5515 25.5086 16.5884 25.498Z" fill="#623F27"/>
<path d="M16.3228 25.5703C16.2827 25.5808 16.2425 25.5915 16.2022 25.6017C16.2425 25.5915 16.2827 25.581 16.3228 25.5703Z" fill="#623F27"/>
<path d="M15.9753 25.6572C15.9328 25.6671 15.89 25.6765 15.8471 25.686C15.89 25.6765 15.9328 25.6671 15.9753 25.6572Z" fill="#623F27"/>
<path d="M14.0932 25.9539C14.0247 25.9596 13.9563 25.9648 13.8877 25.9693C13.9563 25.9648 14.0247 25.9596 14.0932 25.9539Z" fill="#623F27"/>
<path d="M26 13C26 5.8214 20.1786 0 13 0C5.8214 0 0 5.8214 0 13C0 20.1786 5.8214 26 13 26C13.0764 26 13.1523 25.9984 13.2285 25.997V15.8771H10.4355V12.6221H13.2285V10.2269C13.2285 7.44897 14.9243 5.93704 17.4023 5.93704C18.5889 5.93704 19.6089 6.02551 19.9062 6.06499V8.96825H18.1975C16.8495 8.96825 16.5884 9.60896 16.5884 10.549V12.6221H19.8118L19.3917 15.8771H16.5884V25.4977C22.0222 23.94 26 18.9339 26 13Z" fill="#623F27"/>
<path d="M13.8589 25.9709C13.7236 25.9797 13.5878 25.9866 13.4515 25.9912C13.5878 25.9866 13.7236 25.9797 13.8589 25.9709Z" fill="#623F27"/>
<path d="M13.4445 25.9917C13.3727 25.9941 13.3007 25.9959 13.2287 25.9971C13.3007 25.9959 13.3727 25.9941 13.4445 25.9917Z" fill="#623F27"/>
</svg>
