<svg width="21" height="21" viewBox="0 0 21 21" fill="none" xmlns="http://www.w3.org/2000/svg">
<g clip-path="url(#clip0)">
<rect width="21" height="21" fill="white"/>
<path d="M20.5921 16.6984L18.2641 15.1462L16.1945 13.7667C15.7951 13.501 15.2583 13.5881 14.9634 13.9666L13.6828 15.6129C13.4077 15.9702 12.9129 16.0728 12.5184 15.8544C11.6495 15.371 10.6219 14.9159 8.35468 12.6458C6.08744 10.3756 5.62943 9.351 5.14606 8.48206C4.92766 8.08757 5.03032 7.59272 5.38756 7.31768L7.03387 6.03706C7.41231 5.74224 7.49947 5.20548 7.23374 4.80603L5.89664 2.80019L4.3021 0.408348C4.0307 0.0012313 3.48741 -0.120994 3.06783 0.130634L1.22887 1.23386C0.731891 1.52667 0.366569 1.99949 0.208579 2.5543C-0.294308 4.3878 -0.395697 8.43243 6.08634 14.9145C12.5684 21.3965 16.6126 21.2948 18.4461 20.7919C19.0009 20.6339 19.4738 20.2686 19.7666 19.7716L20.8698 17.9326C21.1215 17.513 20.9992 16.9698 20.5921 16.6984Z" fill="#4B8F37"/>
<path d="M11.9476 3.25855C15.3454 3.26232 18.0989 6.01583 18.1027 9.41365C18.1027 9.6136 18.2648 9.77573 18.4648 9.77573C18.6647 9.77573 18.8268 9.61364 18.8268 9.41365C18.8227 5.6161 15.7452 2.53861 11.9476 2.53442C11.7477 2.53442 11.5855 2.69652 11.5855 2.89651C11.5855 3.09641 11.7476 3.25855 11.9476 3.25855Z" fill="#4B8F37"/>
<path d="M11.9491 5.43095C14.1476 5.43353 15.9292 7.21515 15.9318 9.41365C15.9318 9.61359 16.0939 9.77573 16.2939 9.77573C16.4938 9.77573 16.6559 9.61364 16.6559 9.41365C16.6529 6.81538 14.5474 4.70978 11.9491 4.70679C11.7491 4.70679 11.587 4.86888 11.587 5.06887C11.587 5.26886 11.7491 5.43095 11.9491 5.43095Z" fill="#4B8F37"/>
<path d="M11.9476 7.60327C12.9469 7.60446 13.7567 8.41427 13.7579 9.4136C13.7579 9.61355 13.92 9.77568 14.12 9.77568C14.3199 9.77568 14.4821 9.61359 14.4821 9.4136C14.4805 8.01453 13.3467 6.88075 11.9476 6.87915C11.7477 6.87915 11.5855 7.04124 11.5855 7.24123C11.5855 7.44118 11.7476 7.60327 11.9476 7.60327Z" fill="#4B8F37"/>
</g>
<defs>
<clipPath id="clip0">
<rect width="21" height="21" fill="white"/>
</clipPath>
</defs>
</svg>
