<svg width="23" height="23" viewBox="0 0 23 23" fill="none" xmlns="http://www.w3.org/2000/svg">
<path d="M14.0332 11.5L22.6326 2.89968C22.8691 2.66294 22.9996 2.34709 23 2.01029C23 1.67331 22.8695 1.35709 22.6326 1.12072L21.879 0.367276C21.6421 0.129968 21.3262 0 20.9891 0C20.6525 0 20.3367 0.129968 20.0998 0.367276L11.5004 8.96703L2.90062 0.367276C2.66407 0.129968 2.34806 0 2.0111 0C1.67451 0 1.3585 0.129968 1.12195 0.367276L0.368 1.12072C-0.122667 1.61141 -0.122667 2.40955 0.368 2.89968L8.96757 11.5L0.368 20.0999C0.131268 20.3371 0.000934959 20.6529 0.000934959 20.9897C0.000934959 21.3265 0.131268 21.6424 0.368 21.8793L1.12176 22.6327C1.35831 22.8698 1.67451 23 2.01091 23C2.34787 23 2.66389 22.8698 2.90043 22.6327L11.5002 14.0328L20.0996 22.6327C20.3365 22.8698 20.6523 23 20.9889 23H20.9893C21.326 23 21.6419 22.8698 21.8788 22.6327L22.6324 21.8793C22.8689 21.6425 22.9994 21.3265 22.9994 20.9897C22.9994 20.6529 22.8689 20.3371 22.6324 20.1001L14.0332 11.5Z" fill="#4B8F37"/>
</svg>
