<svg width="31" height="31" viewBox="0 0 31 31" fill="none" xmlns="http://www.w3.org/2000/svg">
<g clip-path="url(#clip0)">
<path d="M30.1563 22.7509L25.8302 18.4247C24.2851 16.8797 21.6585 17.4978 21.0405 19.5063C20.577 20.8969 19.0319 21.6694 17.6414 21.3603C14.5513 20.5878 10.3797 16.5707 9.60713 13.3261C9.14361 11.9355 10.0706 10.3904 11.4612 9.92695C13.4698 9.30893 14.0878 6.68235 12.5427 5.13729L8.21658 0.811152C6.98054 -0.270384 5.12648 -0.270384 4.04495 0.811152L1.10935 3.74675C-1.82625 6.83685 1.41836 15.0256 8.6801 22.2874C15.9418 29.5491 24.1306 32.9483 27.2207 29.8581L30.1563 26.9225C31.2379 25.6865 31.2379 23.8324 30.1563 22.7509Z" fill="#4B8F37"/>
</g>
<defs>
<clipPath id="clip0">
<rect width="31" height="31" fill="white"/>
</clipPath>
</defs>
</svg>
